{
    "accessors" : [
        {
            "bufferView" : 0,
            "componentType" : 5123,
            "count" : 84,
            "max" : [
                47
            ],
            "min" : [
                0
            ],
            "type" : "SCALAR"
        },
        {
            "bufferView" : 1,
            "componentType" : 5126,
            "count" : 48,
            "max" : [
                1.2550532817840576,
                1.0,
                1.2550532817840576
            ],
            "min" : [
                -1.2550532817840576,
                -1.0,
                -1.2550532817840576
            ],
            "type" : "VEC3"
        },
        {
            "bufferView" : 2,
            "componentType" : 5126,
            "count" : 48,
            "max" : [
                0.9931172132492065,
                1.0,
                0.9931172132492065
            ],
            "min" : [
                -0.9931172132492065,
                -1.0,
                -0.9931172132492065
            ],
            "type" : "VEC3"
        },
        {
            "bufferView" : 3,
            "componentType" : 5123,
            "count" : 150,
            "max" : [
                99
            ],
            "min" : [
                0
            ],
            "type" : "SCALAR"
        },
        {
            "bufferView" : 4,
            "componentType" : 5126,
            "count" : 100,
            "max" : [
                1.5339497327804565,
                0.059305496513843536,
                0.0655718743801117
            ],
            "min" : [
                -0.6764020323753357,
                -0.048265885561704636,
                -0.04824724793434143
            ],
            "type" : "VEC3"
        },
        {
            "bufferView" : 5,
            "componentType" : 5126,
            "count" : 100,
            "max" : [
                0.12365099042654037,
                0.7100304365158081,
                0.707047700881958
            ],
            "min" : [
                -0.9950369596481323,
                -0.707395076751709,
                -0.7085985541343689
            ],
            "type" : "VEC3"
        },
        {
            "bufferView" : 6,
            "componentType" : 5123,
            "count" : 54,
            "max" : [
                35
            ],
            "min" : [
                0
            ],
            "type" : "SCALAR"
        },
        {
            "bufferView" : 7,
            "componentType" : 5126,
            "count" : 36,
            "max" : [
                0.944053590297699,
                0.04741073399782181,
                0.03940720483660698
            ],
            "min" : [
                0.3067537844181061,
                -0.43264341354370117,
                -0.12676158547401428
            ],
            "type" : "VEC3"
        },
        {
            "bufferView" : 8,
            "componentType" : 5126,
            "count" : 36,
            "max" : [
                0.9997284412384033,
                0.7059418559074402,
                0.7073036432266235
            ],
            "min" : [
                -0.6734591722488403,
                -0.6944184899330139,
                -0.6983179450035095
            ],
            "type" : "VEC3"
        },
        {
            "bufferView" : 9,
            "componentType" : 5123,
            "count" : 54,
            "max" : [
                35
            ],
            "min" : [
                0
            ],
            "type" : "SCALAR"
        },
        {
            "bufferView" : 10,
            "componentType" : 5126,
            "count" : 36,
            "max" : [
                1.003504991531372,
                0.07136954367160797,
                0.050018198788166046
            ],
            "min" : [
                0.3459983468055725,
                -0.3314138650894165,
                -0.0822080671787262
            ],
            "type" : "VEC3"
        },
        {
            "bufferView" : 11,
            "componentType" : 5126,
            "count" : 36,
            "max" : [
                0.992784321308136,
                0.7756896615028381,
                0.7882288694381714
            ],
            "min" : [
                -0.659321129322052,
                -0.7725079655647278,
                -0.7814136147499084
            ],
            "type" : "VEC3"
        },
        {
            "bufferView" : 12,
            "componentType" : 5123,
            "count" : 54,
            "max" : [
                35
            ],
            "min" : [
                0
            ],
            "type" : "SCALAR"
        },
        {
            "bufferView" : 13,
            "componentType" : 5126,
            "count" : 36,
            "max" : [
                0.9544883966445923,
                0.08236007392406464,
                0.01038183644413948
            ],
            "min" : [
                0.3067537248134613,
                -0.31418755650520325,
                -0.3046928942203522
            ],
            "type" : "VEC3"
        },
        {
            "bufferView" : 14,
            "componentType" : 5126,
            "count" : 36,
            "max" : [
                0.9997285604476929,
                0.7059009075164795,
                0.8098270893096924
            ],
            "min" : [
                -0.7327582836151123,
                -0.6941244006156921,
                -0.8116667866706848
            ],
            "type" : "VEC3"
        },
        {
            "bufferView" : 15,
            "componentType" : 5123,
            "count" : 270,
            "max" : [
                259
            ],
            "min" : [
                0
            ],
            "type" : "SCALAR"
        },
        {
            "bufferView" : 16,
            "componentType" : 5126,
            "count" : 260,
            "max" : [
                0.9510578513145447,
                0.888033390045166,
                0.9999999403953552
            ],
            "min" : [
                -0.9510578513145447,
                -1.0,
                -0.9999999403953552
            ],
            "type" : "VEC3"
        },
        {
            "bufferView" : 17,
            "componentType" : 5126,
            "count" : 260,
            "max" : [
                0.9989684224128723,
                0.7731873989105225,
                0.9510693550109863
            ],
            "min" : [
                -0.9920774102210999,
                -0.9435237646102905,
                -0.9678492546081543
            ],
            "type" : "VEC3"
        },
        {
            "bufferView" : 18,
            "componentType" : 5123,
            "count" : 270,
            "max" : [
                259
            ],
            "min" : [
                0
            ],
            "type" : "SCALAR"
        },
        {
            "bufferView" : 19,
            "componentType" : 5126,
            "count" : 260,
            "max" : [
                0.9510578513145447,
                0.888033390045166,
                0.9999999403953552
            ],
            "min" : [
                -0.9510578513145447,
                -1.0,
                -0.9999999403953552
            ],
            "type" : "VEC3"
        },
        {
            "bufferView" : 20,
            "componentType" : 5126,
            "count" : 260,
            "max" : [
                0.9989684224128723,
                0.7731873989105225,
                0.9510693550109863
            ],
            "min" : [
                -0.9920774102210999,
                -0.9435237646102905,
                -0.9678492546081543
            ],
            "type" : "VEC3"
        },
        {
            "bufferView" : 21,
            "componentType" : 5123,
            "count" : 270,
            "max" : [
                259
            ],
            "min" : [
                0
            ],
            "type" : "SCALAR"
        },
        {
            "bufferView" : 22,
            "componentType" : 5126,
            "count" : 260,
            "max" : [
                0.9510578513145447,
                0.888033390045166,
                0.9999999403953552
            ],
            "min" : [
                -0.9510578513145447,
                -1.0,
                -0.9999999403953552
            ],
            "type" : "VEC3"
        },
        {
            "bufferView" : 23,
            "componentType" : 5126,
            "count" : 260,
            "max" : [
                0.9989684224128723,
                0.7731873989105225,
                0.9510693550109863
            ],
            "min" : [
                -0.9920774102210999,
                -0.9435237646102905,
                -0.9678492546081543
            ],
            "type" : "VEC3"
        },
        {
            "bufferView" : 24,
            "componentType" : 5123,
            "count" : 270,
            "max" : [
                259
            ],
            "min" : [
                0
            ],
            "type" : "SCALAR"
        },
        {
            "bufferView" : 25,
            "componentType" : 5126,
            "count" : 260,
            "max" : [
                0.9510578513145447,
                0.888033390045166,
                0.9999999403953552
            ],
            "min" : [
                -0.9510578513145447,
                -1.0,
                -0.9999999403953552
            ],
            "type" : "VEC3"
        },
        {
            "bufferView" : 26,
            "componentType" : 5126,
            "count" : 260,
            "max" : [
                0.9989684224128723,
                0.7731873989105225,
                0.9510693550109863
            ],
            "min" : [
                -0.9920774102210999,
                -0.9435237646102905,
                -0.9678492546081543
            ],
            "type" : "VEC3"
        },
        {
            "bufferView" : 27,
            "componentType" : 5123,
            "count" : 6,
            "max" : [
                3
            ],
            "min" : [
                0
            ],
            "type" : "SCALAR"
        },
        {
            "bufferView" : 28,
            "componentType" : 5126,
            "count" : 4,
            "max" : [
                1.0,
                0.0,
                1.0
            ],
            "min" : [
                -1.0,
                0.0,
                -1.0
            ],
            "type" : "VEC3"
        },
        {
            "bufferView" : 29,
            "componentType" : 5126,
            "count" : 4,
            "max" : [
                0.0,
                1.0,
                -0.0
            ],
            "min" : [
                0.0,
                1.0,
                -0.0
            ],
            "type" : "VEC3"
        }
    ],
    "asset" : {
        "generator" : "Khronos Blender glTF 2.0 exporter",
        "version" : "2.0"
    },
    "bufferViews" : [
        {
            "buffer" : 0,
            "byteLength" : 168,
            "byteOffset" : 0,
            "target" : 34963
        },
        {
            "buffer" : 0,
            "byteLength" : 576,
            "byteOffset" : 168,
            "target" : 34962
        },
        {
            "buffer" : 0,
            "byteLength" : 576,
            "byteOffset" : 744,
            "target" : 34962
        },
        {
            "buffer" : 0,
            "byteLength" : 300,
            "byteOffset" : 1320,
            "target" : 34963
        },
        {
            "buffer" : 0,
            "byteLength" : 1200,
            "byteOffset" : 1620,
            "target" : 34962
        },
        {
            "buffer" : 0,
            "byteLength" : 1200,
            "byteOffset" : 2820,
            "target" : 34962
        },
        {
            "buffer" : 0,
            "byteLength" : 108,
            "byteOffset" : 4020,
            "target" : 34963
        },
        {
            "buffer" : 0,
            "byteLength" : 432,
            "byteOffset" : 4128,
            "target" : 34962
        },
        {
            "buffer" : 0,
            "byteLength" : 432,
            "byteOffset" : 4560,
            "target" : 34962
        },
        {
            "buffer" : 0,
            "byteLength" : 108,
            "byteOffset" : 4992,
            "target" : 34963
        },
        {
            "buffer" : 0,
            "byteLength" : 432,
            "byteOffset" : 5100,
            "target" : 34962
        },
        {
            "buffer" : 0,
            "byteLength" : 432,
            "byteOffset" : 5532,
            "target" : 34962
        },
        {
            "buffer" : 0,
            "byteLength" : 108,
            "byteOffset" : 5964,
            "target" : 34963
        },
        {
            "buffer" : 0,
            "byteLength" : 432,
            "byteOffset" : 6072,
            "target" : 34962
        },
        {
            "buffer" : 0,
            "byteLength" : 432,
            "byteOffset" : 6504,
            "target" : 34962
        },
        {
            "buffer" : 0,
            "byteLength" : 540,
            "byteOffset" : 6936,
            "target" : 34963
        },
        {
            "buffer" : 0,
            "byteLength" : 3120,
            "byteOffset" : 7476,
            "target" : 34962
        },
        {
            "buffer" : 0,
            "byteLength" : 3120,
            "byteOffset" : 10596,
            "target" : 34962
        },
        {
            "buffer" : 0,
            "byteLength" : 540,
            "byteOffset" : 13716,
            "target" : 34963
        },
        {
            "buffer" : 0,
            "byteLength" : 3120,
            "byteOffset" : 14256,
            "target" : 34962
        },
        {
            "buffer" : 0,
            "byteLength" : 3120,
            "byteOffset" : 17376,
            "target" : 34962
        },
        {
            "buffer" : 0,
            "byteLength" : 540,
            "byteOffset" : 20496,
            "target" : 34963
        },
        {
            "buffer" : 0,
            "byteLength" : 3120,
            "byteOffset" : 21036,
            "target" : 34962
        },
        {
            "buffer" : 0,
            "byteLength" : 3120,
            "byteOffset" : 24156,
            "target" : 34962
        },
        {
            "buffer" : 0,
            "byteLength" : 540,
            "byteOffset" : 27276,
            "target" : 34963
        },
        {
            "buffer" : 0,
            "byteLength" : 3120,
            "byteOffset" : 27816,
            "target" : 34962
        },
        {
            "buffer" : 0,
            "byteLength" : 3120,
            "byteOffset" : 30936,
            "target" : 34962
        },
        {
            "buffer" : 0,
            "byteLength" : 12,
            "byteOffset" : 34056,
            "target" : 34963
        },
        {
            "buffer" : 0,
            "byteLength" : 48,
            "byteOffset" : 34068,
            "target" : 34962
        },
        {
            "buffer" : 0,
            "byteLength" : 48,
            "byteOffset" : 34116,
            "target" : 34962
        }
    ],
    "buffers" : [
        {
            "byteLength" : 34164,
            "uri" : "26 - Potted Plant.bin"
        }
    ],
    "meshes" : [
        {
            "name" : "Cube",
            "primitives" : [
                {
                    "attributes" : {
                        "NORMAL" : 2,
                        "POSITION" : 1
                    },
                    "indices" : 0
                }
            ]
        },
        {
            "name" : "CUNurbsPath",
            "primitives" : [
                {
                    "attributes" : {
                        "NORMAL" : 5,
                        "POSITION" : 4
                    },
                    "indices" : 3
                }
            ]
        },
        {
            "name" : "CUNurbsPath.002",
            "primitives" : [
                {
                    "attributes" : {
                        "NORMAL" : 8,
                        "POSITION" : 7
                    },
                    "indices" : 6
                }
            ]
        },
        {
            "name" : "CUNurbsPath.003",
            "primitives" : [
                {
                    "attributes" : {
                        "NORMAL" : 11,
                        "POSITION" : 10
                    },
                    "indices" : 9
                }
            ]
        },
        {
            "name" : "CUNurbsPath.004",
            "primitives" : [
                {
                    "attributes" : {
                        "NORMAL" : 14,
                        "POSITION" : 13
                    },
                    "indices" : 12
                }
            ]
        },
        {
            "name" : "Icosphere",
            "primitives" : [
                {
                    "attributes" : {
                        "NORMAL" : 17,
                        "POSITION" : 16
                    },
                    "indices" : 15
                }
            ]
        },
        {
            "name" : "Icosphere.001",
            "primitives" : [
                {
                    "attributes" : {
                        "NORMAL" : 20,
                        "POSITION" : 19
                    },
                    "indices" : 18
                }
            ]
        },
        {
            "name" : "Icosphere.003",
            "primitives" : [
                {
                    "attributes" : {
                        "NORMAL" : 23,
                        "POSITION" : 22
                    },
                    "indices" : 21
                }
            ]
        },
        {
            "name" : "Icosphere.004",
            "primitives" : [
                {
                    "attributes" : {
                        "NORMAL" : 26,
                        "POSITION" : 25
                    },
                    "indices" : 24
                }
            ]
        },
        {
            "name" : "Plane",
            "primitives" : [
                {
                    "attributes" : {
                        "NORMAL" : 29,
                        "POSITION" : 28
                    },
                    "indices" : 27
                }
            ]
        }
    ],
    "nodes" : [
        {
            "name" : "Camera",
            "rotation" : [
                0.5026004314422607,
                0.1958370804786682,
                -0.11804546415805817,
                0.8337301015853882
            ],
            "translation" : [
                7.572595596313477,
                13.796658515930176,
                15.271801948547363
            ]
        },
        {
            "mesh" : 0,
            "name" : "Cube",
            "translation" : [
                0.0,
                1.0,
                -0.0
            ]
        },
        {
            "mesh" : 5,
            "name" : "Icosphere",
            "rotation" : [
                5.0501873793962204e-09,
                0.42477986216545105,
                3.404622694880288e-10,
                0.905296802520752
            ],
            "scale" : [
                0.3853788673877716,
                0.36741435527801514,
                0.3609992265701294
            ],
            "translation" : [
                -1.0099830627441406,
                3.9495882987976074,
                -0.04857511818408966
            ]
        },
        {
            "mesh" : 6,
            "name" : "Icosphere.001",
            "rotation" : [
                -1.648446823487859e-09,
                -0.02358110621571541,
                -2.659570064178496e-10,
                0.9997219443321228
            ],
            "scale" : [
                0.5337925553321838,
                0.5089098811149597,
                0.500024139881134
            ],
            "translation" : [
                -0.12422296404838562,
                5.796849727630615,
                -0.07276711612939835
            ]
        },
        {
            "mesh" : 7,
            "name" : "Icosphere.003",
            "rotation" : [
                -2.6240452033476913e-09,
                -0.0904422178864479,
                -3.52176510176605e-10,
                0.9959017038345337
            ],
            "scale" : [
                0.40186113119125366,
                0.3831283152103424,
                0.37643879652023315
            ],
            "translation" : [
                0.295317679643631,
                3.711745262145996,
                0.5758181810379028
            ]
        },
        {
            "mesh" : 8,
            "name" : "Icosphere.004",
            "rotation" : [
                -2.3802408932738217e-09,
                0.4760000705718994,
                1.1593513926655419e-09,
                0.8794452548027039
            ],
            "scale" : [
                0.504494309425354,
                0.48097726702690125,
                0.4725792109966278
            ],
            "translation" : [
                0.3467863202095032,
                4.979140758514404,
                -0.8729138970375061
            ]
        },
        {
            "mesh" : 1,
            "name" : "NurbsPath",
            "rotation" : [
                -4.750302906586512e-08,
                4.7503018407724085e-08,
                -0.7071067094802856,
                0.70710688829422
            ],
            "scale" : [
                2.1065642833709717,
                3.0962986946105957,
                3.0962986946105957
            ],
            "translation" : [
                -0.05767908692359924,
                4.0396552085876465,
                -0.0
            ]
        },
        {
            "mesh" : 3,
            "name" : "NurbsPath.001",
            "rotation" : [
                0.5712900161743164,
                -0.5712898969650269,
                -0.41668665409088135,
                0.4166867733001709
            ],
            "scale" : [
                2.1065642833709717,
                3.0962982177734375,
                3.0962982177734375
            ],
            "translation" : [
                0.11270854622125626,
                5.407547473907471,
                -0.0
            ]
        },
        {
            "mesh" : 2,
            "name" : "NurbsPath.002",
            "rotation" : [
                -4.750302906586512e-08,
                4.7503018407724085e-08,
                -0.7071067094802856,
                0.70710688829422
            ],
            "scale" : [
                1.4937108755111694,
                2.1955063343048096,
                2.1955063343048096
            ],
            "translation" : [
                -0.03843662142753601,
                4.0243239402771,
                0.05306710675358772
            ]
        },
        {
            "mesh" : 4,
            "name" : "NurbsPath.003",
            "rotation" : [
                -0.6888858079910278,
                0.7047348022460938,
                -0.13363017141819,
                0.10453781485557556
            ],
            "scale" : [
                1.2871158123016357,
                1.8713099956512451,
                1.8708359003067017
            ],
            "translation" : [
                0.11486203223466873,
                3.7464165687561035,
                -0.03584909066557884
            ]
        },
        {
            "mesh" : 9,
            "name" : "Plane",
            "scale" : [
                1.0436547994613647,
                1.0436547994613647,
                1.0436547994613647
            ],
            "translation" : [
                0.0,
                1.473555564880371,
                -0.0
            ]
        }
    ],
    "scene" : 0,
    "scenes" : [
        {
            "name" : "Scene",
            "nodes" : [
                4,
                3,
                2,
                9,
                7,
                8,
                6,
                10,
                1,
                0,
                5
            ]
        }
    ]
}
