{
  "accessors": [
    {
      "bufferView": 1,
      "componentType": 5126,
      "count": 16,
      "max": [
        0.10000000149011612,
        3.2424700260162354,
        0.10000000149011612
      ],
      "min": [
        -0.10000000149011612,
        -2.9852199554443359,
        -0.10000000149011612
      ],
      "type": "VEC3"
    },
    {
      "bufferView": 1,
      "byteOffset": 192,
      "componentType": 5126,
      "count": 16,
      "max": [
        0.99959379434585571,
        0.063550077378749847,
        0.029860042035579681
      ],
      "min": [
        0.98100781440734863,
        0.026440100744366646,
        -0.19094957411289215
      ],
      "type": "VEC3"
    },
    {
      "bufferView": 0,
      "componentType": 5125,
      "count": 18,
      "max": [
        15
      ],
      "min": [
        0
      ],
      "type": "SCALAR"
    },
    {
      "bufferView": 1,
      "byteOffset": 384,
      "componentType": 5126,
      "count": 48,
      "max": [
        0.02500000037252903,
        0.02500000037252903,
        0.012500000186264515
      ],
      "min": [
        -0.02500000037252903,
        -0.02500000037252903,
        -0.012500000186264515
      ],
      "type": "VEC3"
    },
    {
      "bufferView": 1,
      "byteOffset": 960,
      "componentType": 5126,
      "count": 48,
      "max": [
        0.92388087511062622,
        0.92388087511062622,
        1
      ],
      "min": [
        -0.92388087511062622,
        -0.92388087511062622,
        -1
      ],
      "type": "VEC3"
    },
    {
      "bufferView": 0,
      "byteOffset": 72,
      "componentType": 5125,
      "count": 84,
      "max": [
        47
      ],
      "min": [
        0
      ],
      "type": "SCALAR"
    },
    {
      "bufferView": 1,
      "byteOffset": 1536,
      "componentType": 5126,
      "count": 16,
      "max": [
        0.10000000149011612,
        3.2424700260162354,
        0.10000000149011612
      ],
      "min": [
        -0.10000000149011612,
        -2.9852199554443359,
        -0.10000000149011612
      ],
      "type": "VEC3"
    },
    {
      "bufferView": 1,
      "byteOffset": 1728,
      "componentType": 5126,
      "count": 16,
      "max": [
        0.99959379434585571,
        0.063550077378749847,
        0.029860042035579681
      ],
      "min": [
        0.98100781440734863,
        0.026440100744366646,
        -0.19094957411289215
      ],
      "type": "VEC3"
    },
    {
      "bufferView": 0,
      "byteOffset": 408,
      "componentType": 5125,
      "count": 18,
      "max": [
        15
      ],
      "min": [
        0
      ],
      "type": "SCALAR"
    },
    {
      "bufferView": 1,
      "byteOffset": 1920,
      "componentType": 5126,
      "count": 16,
      "max": [
        0.10000000149011612,
        3.2424700260162354,
        0.10000000149011612
      ],
      "min": [
        -0.10000000149011612,
        -2.9852199554443359,
        -0.10000000149011612
      ],
      "type": "VEC3"
    },
    {
      "bufferView": 1,
      "byteOffset": 2112,
      "componentType": 5126,
      "count": 16,
      "max": [
        0.99959379434585571,
        0.063550077378749847,
        0.029860042035579681
      ],
      "min": [
        0.98100781440734863,
        0.026440100744366646,
        -0.19094957411289215
      ],
      "type": "VEC3"
    },
    {
      "bufferView": 0,
      "byteOffset": 480,
      "componentType": 5125,
      "count": 18,
      "max": [
        15
      ],
      "min": [
        0
      ],
      "type": "SCALAR"
    },
    {
      "bufferView": 1,
      "byteOffset": 2304,
      "componentType": 5126,
      "count": 16,
      "max": [
        0.10000000149011612,
        3.2424700260162354,
        0.10000000149011612
      ],
      "min": [
        -0.10000000149011612,
        -2.9852199554443359,
        -0.10000000149011612
      ],
      "type": "VEC3"
    },
    {
      "bufferView": 1,
      "byteOffset": 2496,
      "componentType": 5126,
      "count": 16,
      "max": [
        0.99959379434585571,
        0.063550077378749847,
        0.029860042035579681
      ],
      "min": [
        0.98100781440734863,
        0.026440100744366646,
        -0.19094957411289215
      ],
      "type": "VEC3"
    },
    {
      "bufferView": 0,
      "byteOffset": 552,
      "componentType": 5125,
      "count": 18,
      "max": [
        15
      ],
      "min": [
        0
      ],
      "type": "SCALAR"
    },
    {
      "bufferView": 1,
      "byteOffset": 2688,
      "componentType": 5126,
      "count": 114,
      "max": [
        0.20000000298023224,
        0.20000000298023224,
        0.05000000074505806
      ],
      "min": [
        -0.20000000298023224,
        -0.20000000298023224,
        -0.05000000074505806
      ],
      "type": "VEC3"
    },
    {
      "bufferView": 1,
      "byteOffset": 4056,
      "componentType": 5126,
      "count": 114,
      "max": [
        0.94295448064804077,
        0.9436306357383728,
        1
      ],
      "min": [
        -0.94685167074203491,
        -0.94517683982849121,
        -1
      ],
      "type": "VEC3"
    },
    {
      "bufferView": 0,
      "byteOffset": 624,
      "componentType": 5125,
      "count": 192,
      "max": [
        113
      ],
      "min": [
        0
      ],
      "type": "SCALAR"
    },
    {
      "bufferView": 1,
      "byteOffset": 5424,
      "componentType": 5126,
      "count": 48,
      "max": [
        0.029999999329447746,
        0.029999999329447746,
        0.039999999105930328
      ],
      "min": [
        -0.029999999329447746,
        -0.029999999329447746,
        -0.039999999105930328
      ],
      "type": "VEC3"
    },
    {
      "bufferView": 1,
      "byteOffset": 6000,
      "componentType": 5126,
      "count": 48,
      "max": [
        0.92388087511062622,
        0.92388087511062622,
        1
      ],
      "min": [
        -0.92388087511062622,
        -0.92388087511062622,
        -1
      ],
      "type": "VEC3"
    },
    {
      "bufferView": 0,
      "byteOffset": 1392,
      "componentType": 5125,
      "count": 84,
      "max": [
        47
      ],
      "min": [
        0
      ],
      "type": "SCALAR"
    },
    {
      "bufferView": 1,
      "byteOffset": 6576,
      "componentType": 5126,
      "count": 48,
      "max": [
        0.10000000149011612,
        0.10000000149011612,
        0.039999999105930328
      ],
      "min": [
        -0.10000000149011612,
        -0.10000000149011612,
        -0.039999999105930328
      ],
      "type": "VEC3"
    },
    {
      "bufferView": 1,
      "byteOffset": 7152,
      "componentType": 5126,
      "count": 48,
      "max": [
        0.92388087511062622,
        0.92388087511062622,
        1
      ],
      "min": [
        -0.92388087511062622,
        -0.92388087511062622,
        -1
      ],
      "type": "VEC3"
    },
    {
      "bufferView": 0,
      "byteOffset": 1728,
      "componentType": 5125,
      "count": 84,
      "max": [
        47
      ],
      "min": [
        0
      ],
      "type": "SCALAR"
    },
    {
      "bufferView": 1,
      "byteOffset": 7728,
      "componentType": 5126,
      "count": 32,
      "max": [
        0.05000000074505806,
        0.037500001490116119,
        0.030829999595880508
      ],
      "min": [
        -0.05000000074505806,
        -0.039459999650716782,
        -0.029999999329447746
      ],
      "type": "VEC3"
    },
    {
      "bufferView": 1,
      "byteOffset": 8112,
      "componentType": 5126,
      "count": 32,
      "max": [
        0.93499130010604858,
        0.99883496761322021,
        0
      ],
      "min": [
        -0.92388087511062622,
        -0.99727058410644531,
        -0.09393049031496048
      ],
      "type": "VEC3"
    },
    {
      "bufferView": 0,
      "byteOffset": 2064,
      "componentType": 5125,
      "count": 48,
      "max": [
        31
      ],
      "min": [
        0
      ],
      "type": "SCALAR"
    },
    {
      "bufferView": 1,
      "byteOffset": 8496,
      "componentType": 5126,
      "count": 24,
      "max": [
        0.004999999888241291,
        0.004999999888241291,
        0.004999999888241291
      ],
      "min": [
        -0.004999999888241291,
        -0.004999999888241291,
        -0.004999999888241291
      ],
      "type": "VEC3"
    },
    {
      "bufferView": 1,
      "byteOffset": 8784,
      "componentType": 5126,
      "count": 24,
      "max": [
        1,
        1,
        1
      ],
      "min": [
        -1,
        -1,
        -1
      ],
      "type": "VEC3"
    },
    {
      "bufferView": 0,
      "byteOffset": 2256,
      "componentType": 5125,
      "count": 36,
      "max": [
        23
      ],
      "min": [
        0
      ],
      "type": "SCALAR"
    }
  ],
  "asset": {
    "extras": {
      "author": "leifer.kopf (https://sketchfab.com/leifer.kopf)",
      "license": "CC-BY-4.0 (http://creativecommons.org/licenses/by/4.0/)",
      "source": "https://sketchfab.com/models/bbfa94c20e6948d698fd18cb942f7928",
      "title": "09 Desk Fan #HouseholdPropsChallenge"
    },
    "generator": "Sketchfab-3.20.4",
    "version": "2.0"
  },
  "bufferViews": [
    {
      "buffer": 0,
      "byteLength": 2400,
      "byteOffset": 0,
      "name": "floatBufferViews",
      "target": 34963
    },
    {
      "buffer": 0,
      "byteLength": 9072,
      "byteOffset": 2400,
      "byteStride": 12,
      "name": "floatBufferViews",
      "target": 34962
    }
  ],
  "buffers": [
    {
      "byteLength": 11472,
      "uri": "scene.bin"
    }
  ],
  "extensionsRequired": [
    "KHR_materials_pbrSpecularGlossiness"
  ],
  "extensionsUsed": [
    "KHR_materials_pbrSpecularGlossiness"
  ],
  "materials": [
    {
      "doubleSided": true,
      "emissiveFactor": [
        0,
        0,
        0
      ],
      "extensions": {
        "KHR_materials_pbrSpecularGlossiness": {
          "diffuseFactor": [
            0.86482458200000001,
            0.86482458200000001,
            0.86482458200000001,
            1
          ],
          "glossinessFactor": 0.40000000000000002,
          "specularFactor": [
            0,
            0,
            0
          ]
        }
      },
      "name": "Cylinder.002_0"
    },
    {
      "doubleSided": true,
      "emissiveFactor": [
        0,
        0,
        0
      ],
      "extensions": {
        "KHR_materials_pbrSpecularGlossiness": {
          "diffuseFactor": [
            0.8928293249,
            0.8928293249,
            0.8928293249,
            1
          ],
          "glossinessFactor": 1,
          "specularFactor": [
            0,
            0,
            0
          ]
        }
      },
      "name": "White"
    },
    {
      "doubleSided": true,
      "emissiveFactor": [
        0,
        0,
        0
      ],
      "extensions": {
        "KHR_materials_pbrSpecularGlossiness": {
          "diffuseFactor": [
            0.097607663499999997,
            0.097607663499999997,
            0.097607663499999997,
            1
          ],
          "glossinessFactor": 1,
          "specularFactor": [
            0,
            0,
            0
          ]
        }
      },
      "name": "Dark_Grey"
    },
    {
      "doubleSided": true,
      "emissiveFactor": [
        0,
        0,
        0
      ],
      "extensions": {
        "KHR_materials_pbrSpecularGlossiness": {
          "diffuseFactor": [
            0.2019596836,
            0.2019596836,
            0.2019596836,
            1
          ],
          "glossinessFactor": 1,
          "specularFactor": [
            0,
            0,
            0
          ]
        }
      },
      "name": "Grey"
    }
  ],
  "meshes": [
    {
      "name": "Cube_0",
      "primitives": [
        {
          "attributes": {
            "NORMAL": 1,
            "POSITION": 0
          },
          "indices": 2,
          "material": 0,
          "mode": 4
        }
      ]
    },
    {
      "name": "Cylinder_0",
      "primitives": [
        {
          "attributes": {
            "NORMAL": 4,
            "POSITION": 3
          },
          "indices": 5,
          "material": 2,
          "mode": 4
        }
      ]
    },
    {
      "name": "Cube.001_0",
      "primitives": [
        {
          "attributes": {
            "NORMAL": 7,
            "POSITION": 6
          },
          "indices": 8,
          "material": 0,
          "mode": 4
        }
      ]
    },
    {
      "name": "Cube.002_0",
      "primitives": [
        {
          "attributes": {
            "NORMAL": 10,
            "POSITION": 9
          },
          "indices": 11,
          "material": 0,
          "mode": 4
        }
      ]
    },
    {
      "name": "Cube.003_0",
      "primitives": [
        {
          "attributes": {
            "NORMAL": 13,
            "POSITION": 12
          },
          "indices": 14,
          "material": 1,
          "mode": 4
        }
      ]
    },
    {
      "name": "Cylinder.001_0",
      "primitives": [
        {
          "attributes": {
            "NORMAL": 16,
            "POSITION": 15
          },
          "indices": 17,
          "material": 3,
          "mode": 4
        }
      ]
    },
    {
      "name": "Cylinder.002_0",
      "primitives": [
        {
          "attributes": {
            "NORMAL": 19,
            "POSITION": 18
          },
          "indices": 20,
          "material": 0,
          "mode": 4
        }
      ]
    },
    {
      "name": "Cylinder.003_0",
      "primitives": [
        {
          "attributes": {
            "NORMAL": 22,
            "POSITION": 21
          },
          "indices": 23,
          "material": 3,
          "mode": 4
        }
      ]
    },
    {
      "name": "Cylinder.004_0",
      "primitives": [
        {
          "attributes": {
            "NORMAL": 25,
            "POSITION": 24
          },
          "indices": 26,
          "material": 2,
          "mode": 4
        }
      ]
    },
    {
      "name": "Cube.004_0",
      "primitives": [
        {
          "attributes": {
            "NORMAL": 28,
            "POSITION": 27
          },
          "indices": 29,
          "material": 1,
          "mode": 4
        }
      ]
    }
  ],
  "nodes": [
    {
      "children": [
        1
      ],
      "name": "RootNode (gltf orientation matrix)",
      "rotation": [
        -0.70710678118654746,
        -0,
        -0,
        0.70710678118654757
      ]
    },
    {
      "children": [
        2
      ],
      "name": "RootNode (model correction matrix)"
    },
    {
      "children": [
        3,
        5,
        7,
        9,
        11,
        13,
        15,
        17,
        19,
        21
      ],
      "name": "Root"
    },
    {
      "children": [
        4
      ],
      "matrix": [
        0.25,
        0,
        0,
        0,
        0,
        0.005000000000000001,
        0,
        0,
        0,
        0,
        0.5,
        0,
        0,
        0,
        0.076410000000000006,
        1
      ],
      "name": "Cube"
    },
    {
      "mesh": 0,
      "name": "Cube_0"
    },
    {
      "children": [
        6
      ],
      "matrix": [
        -0,
        -0,
        -1,
        0,
        1,
        -0,
        -0,
        0,
        -0,
        -1,
        0,
        0,
        0,
        0,
        0.0045000000000000014,
        1
      ],
      "name": "Cylinder"
    },
    {
      "mesh": 1,
      "name": "Cylinder_0"
    },
    {
      "children": [
        8
      ],
      "matrix": [
        -0,
        0,
        -0.25,
        0,
        0,
        0.005000000000000001,
        0,
        0,
        0.5,
        0,
        -0,
        0,
        0.072840000000000002,
        -0.00024000000000000009,
        0.0041100000000000008,
        1
      ],
      "name": "Cube.001"
    },
    {
      "mesh": 2,
      "name": "Cube.001_0"
    },
    {
      "children": [
        10
      ],
      "matrix": [
        -0.25,
        0,
        0,
        0,
        0,
        0.005000000000000001,
        0,
        0,
        -0,
        0,
        -0.5,
        0,
        -0.00077000000000000028,
        -0.00024000000000000009,
        -0.065360000000000015,
        1
      ],
      "name": "Cube.002"
    },
    {
      "mesh": 3,
      "name": "Cube.002_0"
    },
    {
      "children": [
        12
      ],
      "matrix": [
        0,
        0,
        0.25,
        0,
        0,
        0.005000000000000001,
        0,
        0,
        -0.5,
        0,
        0,
        0,
        -0.070770000000000013,
        -0.00024000000000000009,
        0.0046600000000000009,
        1
      ],
      "name": "Cube.003"
    },
    {
      "mesh": 4,
      "name": "Cube.003_0"
    },
    {
      "children": [
        14
      ],
      "matrix": [
        -0,
        -0,
        -0.62500000000000011,
        0,
        0.62500000000000011,
        -0,
        -0,
        0,
        -0,
        -0.80000000000000004,
        0,
        0,
        0,
        0,
        0.0056200000000000009,
        1
      ],
      "name": "Cylinder.001"
    },
    {
      "mesh": 5,
      "name": "Cylinder.001_0"
    },
    {
      "children": [
        16
      ],
      "matrix": [
        -0,
        -0,
        -0.5,
        0,
        0.5,
        -0,
        -0,
        0,
        -0,
        -1.0125,
        0,
        0,
        0,
        0,
        0.0056200000000000009,
        1
      ],
      "name": "Cylinder.002"
    },
    {
      "mesh": 6,
      "name": "Cylinder.002_0"
    },
    {
      "children": [
        18
      ],
      "matrix": [
        1,
        0,
        0,
        0,
        0,
        1,
        0,
        0,
        0,
        0,
        0.25,
        0,
        0,
        0,
        -0.16848000000000005,
        1
      ],
      "name": "Cylinder.003"
    },
    {
      "mesh": 7,
      "name": "Cylinder.003_0"
    },
    {
      "children": [
        20
      ],
      "matrix": [
        1,
        0,
        0,
        0,
        0,
        1,
        0,
        0,
        0,
        0,
        1,
        0,
        0,
        0,
        -0.13128000000000001,
        1
      ],
      "name": "Cylinder.004"
    },
    {
      "mesh": 8,
      "name": "Cylinder.004_0"
    },
    {
      "children": [
        22
      ],
      "matrix": [
        8,
        0,
        0,
        0,
        0,
        2,
        0,
        0,
        0,
        0,
        1,
        0,
        0,
        -0.064170000000000019,
        -0.15726000000000004,
        1
      ],
      "name": "Cube.004"
    },
    {
      "mesh": 9,
      "name": "Cube.004_0"
    }
  ],
  "scene": 0,
  "scenes": [
    {
      "name": "OSG_Scene",
      "nodes": [
        0
      ]
    }
  ]
}

